<svg xmlns="http://www.w3.org/2000/svg" width="86" height="44" fill="none"><g fill="#fff" clip-path="url(#a)"><path d="M30.97 5.213c-.35-.356-.676-.737-1.054-1.061-.373-.321-.797-.585-1.169-.966.602.17 1.206.333 1.805.513 1.272.38 2.4 1.025 3.452 1.804 2.458 1.82 5.25 2.848 8.288 3.269 2.53.35 5.046.173 7.543-.302.612-.116 1.167-.376 1.525-.926.21-.323.208-.625-.044-.913-.382-.436-.858-.687-1.454-.535-.594.151-1.177.344-1.758.539-3.704 1.241-7.204.921-10.477-1.256a142.528 142.528 0 0 0-3.895-2.507c-.428-.265-.926-.424-1.393-.631l.013-.152c.285 0 .572-.024.854.004 2.14.211 4.151.851 6.04 1.827 2.572 1.328 5.31 1.388 8.104 1.114.58-.057 1.158-.129 1.73-.233.166-.03.307-.194.46-.297-.139-.136-.256-.353-.419-.393-.862-.211-1.727-.44-2.607-.546-1.866-.224-3.741-.379-5.613-.556-.223-.02-.45-.003-.676-.003l-.035-.132c.467-.11.93-.244 1.403-.325 1.58-.27 3.16-.282 4.74.02.142.027.297-.012.445-.021l.055-.181c-.833-.39-1.666-.778-2.5-1.167 0-.045 0-.09.002-.136 1.02 0 2.043-.042 3.061.008C50 1.2 52.04 2.517 53.96 4.078c.306.25.65.476 1.014.633.476.206.983-.018 1.23-.473.239-.438.043-.784-.315-1.023-.41-.274-.875-.472-1.303-.723a56.11 56.11 0 0 1-2.009-1.23c-.177-.114-.298-.313-.39-.57.205.049.415.085.616.147 1.7.526 3.437.433 5.16.217 2.087-.26 4.159-.633 6.24-.935 2.21-.32 4.356-.039 6.211 1.177 2.078 1.361 3.359 3.285 3.57 5.802.186 2.228-.495 4.196-2.069 5.757-1.567 1.555-3.522 2.477-5.85 2.334-1.27-.078-2.482-.426-3.668-.87-3.163-1.185-6.433-1.681-9.82-1.422-1.502.116-3.007.208-4.509.319-.377.028-.75.093-1.146.084 2.373-1.26 4.986-2.011 7.366-3.244-.2-.496-.543-.603-.881-.55-.986.155-1.993.273-2.938.567-2.004.624-3.97 1.361-5.958 2.032-2.235.752-4.555 1.068-6.9 1.299-1.943.191-3.777-.16-5.55-.88-.6-.243-1.149-.607-1.721-.915l.06-.119c.714.164 1.425.339 2.14.487 1.985.413 3.931.303 5.82-.448.254-.1.511-.225.715-.396.177-.149.281-.38.417-.574-.244-.061-.495-.19-.734-.171-.807.06-1.612.267-2.413.244-1.173-.032-2.374-.087-3.505-.36-1.581-.384-3.104-.993-4.66-1.48-2.478-.775-5.012-1.113-7.62-.916-1.793.135-3.59.234-5.386.306-.654.027-1.311-.069-1.968-.109l-.026-.119c.16-.083.315-.182.483-.246 2.964-1.12 6.007-1.989 9.106-2.672 2.378-.524 4.756-.558 7.124.062.317.084.627.194.94.292l.137-.181v.002Zm35.458 8.592c3.027.032 6.32-2.508 6.315-6.243-.004-3.237-2.715-6.05-6.399-6.088-3.427-.034-6.384 2.669-6.362 6.214.022 3.44 2.99 6.096 6.446 6.117ZM36.97 27.885c.338-.937.636-1.797.956-2.649.421-1.124.864-2.241 1.286-3.365.253-.668.083-.887-.67-.891-.732-.003-1.462-.003-2.193-.002-.618.001-.895.169-1.107.726-.716 1.892-1.434 3.784-2.119 5.687-.136.379-.308.535-.724.513-.596-.03-1.195-.008-1.863-.008.049-.193.071-.327.118-.451.666-1.76 1.335-3.517 2.003-5.275.05-.133.113-.264.145-.401.142-.586-.023-.788-.64-.79-.91-.001-1.819.009-2.727-.006-.288-.004-.41.081-.511.359-.72 1.958-1.51 3.892-2.179 5.866-.2.592-.484.717-1.027.69-.53-.026-1.063-.006-1.69-.006.241-.636.46-1.203.672-1.772.828-2.221 1.664-4.44 2.47-6.668.166-.46.397-.613.911-.61 3.832.028 7.663.016 11.495.024.485 0 .974.026 1.455.084.962.118 1.431.92 1.09 1.805-.879 2.286-1.75 4.574-2.64 6.857-.046.118-.217.265-.335.27-.695.025-1.39.012-2.175.012ZM23.104 25.69l-.775 2.113h-3.11c-1.64 0-3.279.003-4.918-.001-1.2-.003-1.816-.78-1.43-1.866.66-1.86 1.343-3.713 2.052-5.555.387-1.001 1.163-1.526 2.284-1.517 2.19.018 4.38.01 6.569.069 1.086.029 1.588.815 1.223 1.798a94.94 94.94 0 0 1-1.344 3.443c-.06.145-.344.28-.528.286-.876.03-1.753.021-2.63.014a318.375 318.375 0 0 1-4.28-.055c-.377-.008-.503.199-.595.871-.052.389.25.379.516.378 2.256-.005 4.511-.012 6.767-.018.047 0 .093.018.199.04Zm-6.376-3.355c1.651 0 3.266.006 4.88-.006.286-.003.598-.508.573-.88-.025-.383-.276-.477-.636-.473-1.133.012-2.265.005-3.398.004-.94-.001-1.298.323-1.42 1.355ZM.771 27.833c.222-.624.395-1.23.664-1.794.073-.153.433-.248.663-.25 1.671-.016 3.342 0 5.014.002.276 0 .572.04.822-.043a2.43 2.43 0 0 0 .838-.493c.118-.106.181-.407.11-.538-.075-.136-.34-.24-.523-.243-.957-.018-1.915.01-2.872.004a17.865 17.865 0 0 1-1.506-.077c-.998-.092-1.483-.81-1.17-1.74.255-.763.534-1.519.813-2.274.38-1.03 1.147-1.525 2.265-1.526 2.564-.002 5.128-.006 7.692-.007.043 0 .087.031.192.072-.234.65-.442 1.308-.722 1.934-.056.127-.385.193-.59.195a484.99 484.99 0 0 1-5.695.006c-.391-.001-.77.026-.98.385-.102.174-.19.442-.121.6.066.15.341.297.529.303 1.021.032 2.044.015 3.067.026.485.006.974.013 1.457.061.828.083 1.345.798 1.087 1.56A29.217 29.217 0 0 1 10.79 26.6c-.359.798-1.016 1.272-1.938 1.278-2.629.018-5.258.016-7.887.02-.045 0-.09-.029-.195-.064v-.002Zm60.989-.007c.247-.646.47-1.28.742-1.893.045-.1.306-.156.467-.157 1.687-.001 3.374.013 5.062.02.26.002.538.047.773-.03a2.87 2.87 0 0 0 .903-.484c.125-.1.199-.404.134-.543-.064-.134-.333-.24-.516-.246-.81-.027-1.623-.005-2.433-.016a29.464 29.464 0 0 1-1.847-.071c-1.073-.083-1.566-.774-1.257-1.763.226-.723.482-1.436.736-2.15.405-1.141 1.005-1.612 2.328-1.622 2.547-.021 5.094.026 7.64.046.029 0 .056.027.182.09-.228.615-.438 1.253-.711 1.864-.054.12-.355.19-.542.191-1.915.012-3.83.008-5.744 0-.436-.001-.798.095-.995.524-.217.471-.042.769.512.777 1.119.016 2.239.001 3.358.01.388.002.781.003 1.163.059.84.123 1.314.811 1.051 1.588a29.205 29.205 0 0 1-1.018 2.603c-.37.822-1.054 1.261-1.994 1.264-2.58.008-5.16.01-7.74.01-.059 0-.118-.032-.254-.072Zm18.414.055 1.301-3.488c-.532.03-.947.078-1.361.075a90.343 90.343 0 0 1-2.87-.072c-.31-.013-.471.087-.572.377a84.61 84.61 0 0 1-.994 2.713c-.053.138-.206.336-.32.341-.724.031-1.45.016-2.202.016.009-.091-.004-.187.027-.268 1.015-2.723 2.044-5.44 3.044-8.168.155-.423.354-.61.835-.571.578.045 1.162.01 1.852.01-.117.371-.197.68-.312.978a63.159 63.159 0 0 1-.836 2.066c-.145.34-.05.461.32.459 1.265-.008 2.53-.008 3.797.002.314.002.442-.123.541-.413a62.73 62.73 0 0 1 1.021-2.754c.053-.135.22-.316.34-.322.71-.03 1.42-.014 2.214-.014-.067.262-.098.456-.167.637-.995 2.596-2.022 5.182-2.974 7.794-.19.52-.42.648-.925.611-.545-.04-1.095-.009-1.759-.009Zm-23.807-9.036-.369.964c-.638 1.667-1.284 3.331-1.91 5.003-.28.75-.13.95.677.961.843.012 1.687.012 2.53.01.811-.003 1.176-.259 1.451-1 .682-1.836 1.371-3.669 2.037-5.51.116-.318.266-.457.624-.433.484.032.973.01 1.46.016.547.006.593.063.387.578-.306.762-.646 1.513-.941 2.28a303.742 303.742 0 0 0-1.702 4.523c-.355.968-1 1.613-2.086 1.626-2.026.023-4.055.041-6.078-.056-1.178-.057-1.613-.844-1.215-1.934.798-2.179 1.622-4.348 2.425-6.526.13-.354.31-.54.74-.512.622.04 1.25.01 1.97.01ZM30.565 37.82a7.036 7.036 0 0 1 2.332 2.305c.578.91 1.18 1.805 1.82 2.78-.6 0-1.115.06-1.602-.028-.224-.04-.422-.352-.582-.576-.768-1.074-1.502-2.17-2.28-3.235-.599-.82-1.443-1.184-2.482-1.13a8.723 8.723 0 0 1-1.12-.017c-.425-.034-.616.084-.606.544.027 1.341-.003 2.684.024 4.025.008.381-.106.514-.491.478-.287-.026-.579-.005-.908-.005V31.763c.122-.01.26-.033.398-.03 1.882.027 3.765.055 5.647.088 2.326.041 3.342 1.724 3.015 3.712-.176 1.068-1.466 2.057-2.692 2.125-.138.008-.276.022-.415.033l-.057.127v.002Zm-2.205-4.896v-.021c-.616 0-1.231.006-1.847-.002-.315-.005-.472.092-.467.435a98.61 98.61 0 0 1 0 2.979c-.004.284.1.404.39.399 1.295-.025 2.593 0 3.885-.077 1.181-.07 1.99-.898 1.98-1.89-.01-1.01-.867-1.766-2.095-1.817-.614-.026-1.23-.005-1.847-.005h.001Zm47.3 4.426c0-1.72.01-3.44-.009-5.16-.004-.355.105-.467.468-.459 1.638.043 3.277.037 4.913.103 1.684.068 3.105 1.212 3.658 2.938.671 2.095.646 4.167-.455 6.134-.645 1.153-1.728 1.762-3.044 1.855-1.727.121-3.462.136-5.193.202-.274.01-.358-.087-.355-.36.013-1.75.007-3.502.007-5.252h.01v-.001Zm1.38-.03h-.008c0 1.31.009 2.62-.007 3.93-.004.321.135.427.43.42 1.054-.024 2.108-.017 3.16-.078 1.265-.073 2.105-.771 2.562-1.883a6.323 6.323 0 0 0 .242-4.176c-.348-1.241-1.084-2.285-2.531-2.438-1.171-.124-2.364-.066-3.547-.086-.314-.005-.302.218-.301.43v3.882Zm-63.22 5.642v-.614c-.004-3.379-.004-6.757-.021-10.136-.002-.358.08-.495.482-.491 2.45.021 4.9.034 7.35.011.69-.007.468.437.513.77.051.38-.091.521-.511.516-1.964-.024-3.928-.007-5.892-.025-.357-.003-.493.096-.486.452.018.9.008 1.8.005 2.7-.002.28.113.377.414.373 1.817-.022 3.635-.03 5.452-.025.18 0 .497.108.515.204.055.317.016.653-.03.975-.006.042-.26.073-.398.073-1.8.005-3.603.02-5.404-.005-.468-.007-.577.143-.562.57.034.946.035 1.895.011 2.841-.01.428.158.533.572.53 2.012-.02 4.025-.011 6.037-.012.564 0 .551 0 .565.71.007.389-.051.598-.552.593-2.548-.026-5.096-.01-7.644-.01h-.416Zm51.056-.031c-.015-.236-.04-.453-.04-.67-.013-3.332-.018-6.663-.037-9.995-.002-.4.12-.549.558-.544 2.418.022 4.837.015 7.256.02.539.002.52.007.54.82.01.405-.173.456-.528.453-1.948-.016-3.896-.005-5.844-.02-.333-.002-.471.094-.465.425.016.915.015 1.831.018 2.746 0 .275.107.372.415.367 1.834-.03 3.668-.035 5.501-.049.343-.003.481.135.478.487-.009.782.01.782-.77.782H66.94c-.625 0-.627 0-.625.63.001.916.015 1.831.005 2.747-.004.41.126.567.593.56 2.045-.032 4.09-.018 6.136-.02.095 0 .19.013.325.024v1.239h-8.499v-.002ZM3.14 37.293c.002 1.02.12 2.018.674 2.914.822 1.33 2.1 1.809 3.61 1.644 1.39-.152 2.256-1.007 2.726-2.27.064-.17.233-.45.327-.441.408.044.81.168 1.204.292.035.01.028.233-.003.347-.546 1.968-2.298 3.249-4.41 3.291-1.574.031-2.993-.293-4.112-1.452-.786-.814-1.135-1.83-1.354-2.887-.257-1.233-.292-2.466.13-3.688.688-1.99 2.163-3.042 4.222-3.4 1.332-.23 2.573.032 3.723.728.752.456 1.184 1.15 1.543 1.903.158.331.065.538-.32.605-.11.02-.216.065-.325.095-.417.115-.703.088-.886-.41-.856-2.331-4.28-2.214-5.61-.699-.778.885-1.146 1.953-1.138 3.427Zm38.028-9.407c.015-.131.008-.227.039-.31.897-2.377 1.81-4.748 2.693-7.13.392-1.056 1.152-1.572 2.274-1.583 1.849-.017 3.697.002 5.546-.008.369-.002.418.16.312.442-.173.458-.319.928-.546 1.36-.085.158-.364.306-.558.31a82.92 82.92 0 0 1-3.94 0c-.598-.016-.891.259-1.077.75-.704 1.86-1.43 3.713-2.103 5.584-.157.438-.362.611-.824.59-.594-.026-1.19-.006-1.815-.006h-.001Zm10.796 15.051H50.48c-.009-.168-.024-.334-.024-.5-.002-3.393.005-6.786-.01-10.178-.003-.41.097-.545.536-.54 2.255.027 4.51.034 6.764.02.453-.003.572.182.54.565-.028.343.093.732-.533.716a207.953 207.953 0 0 0-5.45-.04c-.112 0-.322.168-.323.261-.023 1.085-.015 2.171-.015 3.303h5.452c0 .369.035.698-.02 1.012-.017.096-.278.214-.428.216a153.1 153.1 0 0 1-4.526-.002c-.41-.008-.49.121-.485.48.017 1.357.007 2.714.007 4.071v.616h-.001Zm-16.816-11.18c2.136 0 4.192.002 6.25 0 .777-.001 1.557.01 2.333-.024.393-.017.553.076.542.486-.024.947-.021.79-.82.786-.86-.004-1.72.017-2.579-.01-.38-.013-.509.089-.507.47.014 2.935.006 5.87.01 8.804 0 .694.006.694-.699.693h-.72v-.571c0-2.966-.007-5.933.011-8.899.003-.41-.14-.505-.53-.496-.94.023-1.882-.01-2.822.014-.373.01-.499-.115-.473-.459.018-.248.004-.498.004-.794Zm11.049-.019c.423 0 .812-.024 1.193.016.107.01.268.206.274.323.027.504.005 1.01.005 1.515l.006 8.856c0 .154-.015.307-.025.486h-1.453V31.738Zm15.899 11.203H60.61c-.007-.148-.02-.298-.02-.45-.005-3.409.002-6.819-.022-10.228-.003-.456.153-.553.582-.541.938.026.94.008.942.895l.004 9.803v.521Z"/><path d="M66.322 12.39c-2.148.071-4.91-1.647-4.904-4.811.005-2.692 2.097-4.665 4.599-4.74 2.919-.09 5.204 1.956 5.255 4.639.053 2.796-2.031 4.864-4.95 4.912Zm2.477-1.69.135.041c.044-.015.1-.018.128-.047 1.092-1.127 1.545-2.449 1.13-3.959-.413-1.498-1.464-2.46-2.96-2.955-.463-.153-.774.066-.912.621 1.415.332 2.403 1.167 2.945 2.49.547 1.336.19 2.586-.466 3.81V10.7Z"/></g><defs><clipPath id="a"><path fill="#fff" d="M.771 0H86v43.072H.771z"/></clipPath></defs></svg>